 <svg  version="1.0" xmlns="http://www.w3.org/2000/svg"  width="300.000000pt" height="300.000000pt" viewBox="0 0 300.000000 300.000000"  preserveAspectRatio="xMidYMid meet">  <g transform="translate(0.000000,300.000000) scale(0.100000,-0.100000)" fill="#f3f3f3" stroke="none"> <path d="M1419 2516 c-2 -3 -25 -6 -49 -8 -54 -3 -143 -38 -187 -73 -32 -25 -42 -50 -23 -57 21 -7 -8 -26 -50 -32 -119 -16 -273 -110 -301 -185 -16 -42 -1 -36 61 23 165 158 398 173 675 45 l50 -23 -62 -7 c-41 -4 -85 -17 -127 -38 -60 -31 -65 -32 -93 -18 -85 44 -258 60 -358 33 -76 -20 -148 -58 -131 -68 8 -5 33 -2 58 6 136 46 250 49 383 9 50 -14 93 -29 97 -32 4 -4 -4 -19 -17 -35 -14 -16 -30 -44 -37 -62 -14 -39 -16 -40 -47 -18 -52 37 -171 -6 -271 -97 -81 -74 -129 -100 -200 -106 -74 -6 -81 12 -8 21 63 9 113 37 203 116 61 53 129 99 145 97 15 -1 90 45 90 56 -1 84 -219 72 -376 -21 -94 -55 -167 -60 -257 -16 -54 26 -74 23 -83 -11 -16 -64 62 -167 156 -205 19 -8 38 -15 43 -16 4 -1 9 -2 12 -3 3 0 -8 -13 -25 -28 -29 -27 -30 -29 -16 -55 13 -24 13 -31 0 -58 -19 -37 -12 -62 30 -108 42 -46 83 -68 131 -71 43 -2 27 -21 -18 -21 -85 0 -188 85 -216 180 -41 136 -113 12 -76 -131 17 -64 65 -150 107 -188 12 -12 51 -36 84 -52 159 -79 332 -14 431 160 49 88 67 206 37 249 -11 16 -13 34 -8 67 3 25 4 45 1 45 -4 0 -25 -31 -47 -70 -87 -145 -161 -201 -264 -201 -58 0 -98 15 -133 53 -23 25 -55 80 -49 86 2 1 20 -8 41 -22 67 -46 154 -47 241 -6 26 13 81 55 121 93 61 58 71 72 61 84 -10 12 -9 18 5 28 9 7 17 16 18 21 1 15 119 105 120 92 8 -120 45 -192 105 -204 25 -5 32 -1 47 24 9 17 17 43 17 58 0 75 82 179 178 226 92 45 99 56 62 90 -17 16 -47 31 -71 34 -30 5 -39 10 -34 22 16 43 -43 88 -180 134 -70 24 -76 27 -43 28 80 0 307 -100 373 -166 8 -9 15 -13 15 -9 0 3 12 -6 28 -20 15 -14 42 -35 60 -47 18 -11 31 -23 28 -25 -3 -3 -25 -8 -48 -10 -38 -4 -84 -13 -127 -24 -22 -6 -51 -29 -107 -86 -126 -128 -111 -341 32 -461 60 -50 64 -53 64 -47 0 3 13 -1 30 -10 16 -8 45 -15 64 -15 28 0 41 7 65 37 25 30 31 34 31 18 0 -11 9 -38 21 -59 18 -35 19 -40 5 -55 -22 -24 -20 -47 6 -84 28 -40 89 -96 105 -97 6 0 13 -5 15 -10 5 -15 54 -25 123 -25 75 1 135 32 183 94 25 34 32 51 28 71 -4 22 1 32 25 49 17 12 35 34 42 49 6 15 15 30 20 33 15 11 9 130 -7 148 -11 12 -14 28 -10 52 5 31 1 40 -33 75 -21 21 -47 45 -58 51 -11 7 -50 31 -87 53 -68 41 -105 74 -168 149 -19 23 -37 44 -39 46 -2 2 11 21 28 42 27 33 31 45 31 100 0 34 -4 65 -10 68 -5 3 -10 13 -10 20 0 46 -112 151 -199 185 -66 26 -95 25 -120 -1 l-20 -22 -43 25 c-65 38 -146 65 -218 72 -36 4 -68 5 -71 2z m129 -51 c159 -38 288 -153 351 -312 11 -29 18 -53 14 -53 -4 0 -23 15 -43 34 -62 60 -192 148 -285 192 -117 55 -230 79 -339 70 -88 -7 -88 -2 -6 36 54 24 150 46 205 47 22 0 68 -6 103 -14z m357 -72 c86 -42 155 -124 169 -202 8 -42 -8 -103 -33 -125 -18 -16 -19 -15 -25 18 -14 74 -87 198 -162 274 l-71 74 36 -7 c20 -4 59 -18 86 -32z m-230 -274 l40 -11 -62 -19 c-119 -37 -219 -159 -231 -281 -2 -32 -8 -58 -13 -58 -4 0 -19 15 -33 33 -90 120 -37 280 112 333 46 16 134 18 187 3z m297 -24 c1 -11 8 -23 13 -27 14 -11 -37 -9 -54 1 -12 8 -12 13 3 36 19 28 32 24 38 -10z m-762 -24 c0 -4 -18 -11 -40 -14 -61 -8 -122 -42 -208 -117 -96 -83 -128 -100 -198 -107 -94 -10 -188 52 -230 152 -20 48 -19 49 27 16 85 -62 180 -60 299 6 97 54 162 72 263 72 48 1 87 -3 87 -8z m724 -46 c76 -20 135 -60 160 -110 17 -33 40 -53 116 -98 122 -75 186 -121 200 -147 10 -20 8 -20 -120 -20 -72 0 -140 5 -151 10 -16 9 -19 7 -19 -13 0 -29 12 -40 62 -56 45 -15 78 -53 78 -90 0 -55 -105 -120 -195 -121 -116 0 -187 108 -126 191 25 33 18 35 -39 13 -46 -19 -80 -60 -80 -98 0 -35 -27 -34 -106 3 -202 95 -226 377 -43 498 77 50 165 63 263 38z m-714 -93 c-40 -20 -75 -52 -135 -121 -99 -114 -156 -151 -233 -151 -59 0 -113 23 -152 65 l-25 27 25 -8 c14 -5 54 -9 90 -8 79 0 124 22 207 97 102 93 163 125 243 126 l35 1 -55 -28z m-650 -289 c0 -84 94 -198 184 -223 60 -17 141 -9 199 19 55 27 148 117 185 180 23 40 27 43 30 23 5 -36 -17 -124 -48 -189 -77 -165 -244 -232 -393 -160 -108 54 -168 155 -175 300 -3 60 -1 87 7 87 6 0 11 -16 11 -37z m1767 -36 c3 -5 -5 -20 -18 -33 l-24 -25 -22 26 c-13 14 -23 31 -23 36 0 12 79 9 87 -4z m87 -82 c0 -46 -35 -135 -54 -135 -3 0 -19 13 -34 29 l-28 29 18 49 c9 26 31 63 48 81 27 29 31 30 40 15 6 -10 10 -40 10 -68z m-99 -234 c-43 -83 -145 -120 -247 -89 -45 13 -117 73 -147 122 -29 46 -27 49 15 21 70 -48 155 -45 257 9 l62 33 37 -35 c35 -33 36 -37 23 -61z"/> <path d="M1763 1912 c-51 -8 -93 -19 -93 -23 0 -12 110 -50 164 -56 33 -4 59 -15 80 -33 46 -40 70 -50 117 -50 l43 0 -45 29 c-31 19 -52 43 -67 74 -23 50 -55 78 -87 76 -11 -1 -62 -8 -112 -17z"/> <path d="M1297 1723 c-11 -13 -15 -37 -14 -83 1 -82 -9 -144 -34 -222 -36 -107 -124 -221 -192 -249 -18 -7 -35 -17 -38 -22 -3 -4 -40 -11 -80 -14 -99 -7 -167 13 -243 72 -68 53 -84 57 -59 14 21 -35 59 -66 123 -100 38 -20 59 -24 140 -24 83 0 103 4 153 27 163 77 276 295 265 516 -3 45 -1 82 3 82 15 0 77 -96 94 -145 10 -31 17 -81 17 -130 0 -192 -116 -387 -280 -467 -63 -31 -73 -33 -172 -33 -96 0 -110 3 -160 29 -73 38 -143 113 -185 200 -32 68 -40 69 -35 6 3 -34 21 -66 70 -128 83 -106 203 -158 342 -150 68 4 90 11 164 48 62 31 99 58 132 96 112 127 167 270 159 417 -5 101 -12 131 -42 182 -51 88 -95 114 -128 78z"/> <path d="M1522 1403 c-6 -10 -11 -64 -11 -121 -1 -82 -6 -115 -26 -167 -73 -194 -225 -309 -425 -322 -49 -3 -96 -2 -107 2 -10 4 -25 9 -33 11 -9 2 -40 14 -70 27 -125 55 -131 -24 -11 -127 44 -39 145 -97 196 -112 69 -21 182 -25 254 -9 159 38 304 169 356 325 24 71 24 71 27 168 3 76 4 81 15 54 15 -36 23 -72 30 -132 10 -92 -51 -239 -130 -313 -44 -42 -133 -97 -158 -97 -17 0 -59 -40 -59 -57 0 -33 65 -56 158 -54 142 3 264 53 357 146 94 93 136 208 117 315 -7 38 -6 50 3 50 15 0 41 -69 50 -131 7 -59 32 -84 66 -69 47 21 91 119 82 180 -9 61 -45 110 -115 158 -57 38 -102 47 -138 25 -28 -16 -28 -16 -61 23 -102 120 -267 260 -284 242 -3 -3 59 -70 138 -149 126 -125 149 -154 183 -223 35 -71 39 -88 39 -155 0 -61 -5 -87 -27 -133 -38 -81 -112 -151 -206 -196 -70 -33 -86 -37 -179 -40 -57 -3 -120 -1 -140 3 l-38 7 61 22 c90 33 146 69 199 128 59 66 93 132 111 220 17 79 12 142 -17 237 -33 106 -127 271 -155 271 -7 0 -19 3 -27 6 -9 3 -20 -2 -25 -13z m67 -102 c84 -219 46 -432 -103 -569 -147 -135 -352 -160 -530 -64 -48 26 -201 160 -192 169 2 2 26 -9 53 -26 258 -159 618 3 715 322 16 55 19 86 16 155 -3 48 -8 96 -12 107 -8 20 -7 20 8 1 9 -11 29 -54 45 -95z m446 -190 c135 -64 170 -167 92 -273 l-32 -43 -5 70 c-7 82 -34 145 -97 222 -24 29 -38 53 -31 53 7 0 40 -13 73 -29z"/> </g> </svg> 