 <svg  version="1.0" xmlns="http://www.w3.org/2000/svg"  width="300.000000pt" height="300.000000pt" viewBox="0 0 300.000000 300.000000"  preserveAspectRatio="xMidYMid meet">  <g transform="translate(0.000000,300.000000) scale(0.100000,-0.100000)" fill="#e5e5e5" stroke="none"> <path d="M1588 2620 c-16 -12 -28 -29 -28 -38 0 -15 -17 -17 -165 -17 -91 0 -165 -3 -165 -7 0 -5 -6 -8 -14 -8 -13 0 -26 -20 -26 -42 0 -6 15 -25 34 -43 l34 -32 -100 -33 c-227 -76 -393 -238 -429 -420 -10 -50 -9 -61 6 -84 12 -19 23 -25 36 -21 26 9 25 -15 -3 -50 -19 -24 -26 -27 -65 -21 -38 5 -45 3 -59 -19 -14 -21 -14 -30 -4 -55 15 -37 74 -90 100 -90 34 0 32 -20 -8 -66 -92 -104 -126 -257 -79 -366 17 -40 50 -57 74 -37 13 11 17 10 29 -6 28 -38 52 -63 65 -67 32 -11 1 -103 -50 -152 -44 -42 -38 -73 17 -90 70 -23 151 29 192 122 21 46 39 66 41 45 0 -5 2 -15 5 -23 18 -66 17 -72 -3 -66 -25 8 -36 -5 -58 -73 -19 -58 -40 -86 -76 -105 -12 -6 -27 -19 -33 -28 -15 -25 19 -57 73 -69 47 -10 104 8 150 50 28 24 30 23 37 -15 16 -89 45 -142 85 -157 19 -6 53 26 64 61 9 30 18 28 59 -14 19 -19 36 -35 38 -34 2 1 15 -3 30 -9 15 -6 35 -8 44 -4 11 4 2 13 -33 33 -51 29 -91 78 -118 143 -27 66 -56 207 -58 283 -1 74 -17 83 -17 10 0 -30 -3 -37 -11 -29 -8 8 -10 44 -7 105 3 83 8 103 41 172 21 44 40 77 43 74 3 -3 0 -27 -7 -52 -18 -72 -6 -303 21 -401 20 -73 57 -152 66 -142 2 2 -3 20 -11 40 -22 53 -19 56 16 13 23 -27 34 -34 40 -25 5 8 -2 24 -17 42 -31 37 -59 90 -72 140 -12 44 -2 49 16 7 8 -17 54 -67 103 -112 106 -97 136 -139 165 -226 l21 -66 6 41 c8 45 -4 124 -26 175 -8 18 -40 68 -70 111 -119 164 -150 244 -149 387 0 148 54 282 151 374 39 38 51 27 18 -16 -14 -18 -38 -69 -53 -113 -24 -68 -28 -96 -29 -190 0 -137 16 -187 120 -374 109 -197 125 -291 73 -413 -23 -55 -91 -121 -151 -149 -59 -26 -78 -24 -41 6 83 65 83 215 1 320 -15 19 -16 18 -11 -15 4 -26 1 -40 -10 -50 -15 -11 -21 -9 -49 18 -18 18 -36 32 -40 32 -12 0 33 -81 59 -107 25 -25 47 -24 37 2 -3 9 1 15 10 15 19 0 27 -21 27 -68 0 -34 -17 -76 -55 -141 -12 -22 -12 -26 3 -38 61 -46 211 51 258 169 20 49 24 52 58 54 20 0 36 -1 36 -4 0 -3 -18 -29 -40 -58 -22 -29 -40 -60 -40 -69 0 -17 35 -34 60 -29 8 1 24 3 35 3 11 1 48 19 81 41 69 45 128 123 138 183 6 30 11 37 30 37 32 0 72 42 83 88 11 41 10 67 -2 126 -7 37 -7 38 15 26 18 -10 28 -8 61 14 52 35 105 110 119 168 11 45 9 112 -4 125 -3 4 1 14 9 24 9 9 17 27 18 40 2 23 32 77 50 90 4 3 12 34 18 68 8 53 7 66 -7 91 -14 23 -15 32 -5 44 19 22 2 48 -97 149 -78 78 -85 89 -74 107 26 43 6 102 -54 155 -7 6 -19 22 -28 37 -16 25 -16 27 2 32 31 10 63 52 64 84 1 39 -37 100 -67 108 -17 4 -25 15 -30 42 -7 39 -36 107 -57 133 -20 24 -65 51 -81 47 -8 -2 -36 17 -63 41 -63 57 -176 109 -251 117 -50 5 -62 3 -85 -16z m194 -53 c154 -70 249 -228 219 -364 -15 -66 -33 -81 -25 -19 7 49 -25 174 -50 195 -12 10 -13 9 -9 -8 9 -33 -3 -24 -31 23 -49 84 -155 159 -269 191 l-52 15 80 -3 c60 -3 95 -10 137 -30z m-190 -47 c89 -16 161 -52 223 -111 68 -64 95 -118 95 -189 l0 -53 -30 60 c-35 71 -96 131 -172 169 -80 41 -142 54 -257 54 -117 0 -167 11 -211 49 l-32 26 162 3 c89 1 189 -2 222 -8z m445 -109 c56 -73 67 -155 32 -228 -12 -24 -32 -51 -45 -59 -13 -9 -20 -22 -17 -30 5 -14 -22 -21 -29 -6 -8 18 -106 58 -125 51 -29 -10 -69 12 -65 37 9 47 9 80 -1 92 -6 7 -6 12 0 12 5 0 31 -27 56 -60 46 -58 78 -75 91 -47 5 9 7 9 12 -1 3 -7 16 -25 28 -39 l22 -25 20 28 c15 23 19 46 19 119 0 77 -4 98 -27 148 -32 67 -18 71 29 8z m-482 -16 c112 -30 197 -104 210 -185 l6 -35 -18 25 c-54 76 -161 137 -254 145 -49 5 -51 4 -24 -6 36 -14 95 -57 95 -69 0 -5 -23 3 -52 18 -107 55 -281 28 -458 -71 -103 -58 -226 -180 -270 -270 -18 -37 -35 -65 -37 -63 -2 2 0 30 6 62 24 130 112 255 235 335 158 103 408 154 561 114z m-218 -140 c-47 -44 -60 -72 -60 -131 0 -39 6 -63 20 -82 21 -28 37 -122 22 -122 -5 0 -29 19 -52 43 -43 43 -67 98 -67 154 0 50 41 114 90 140 60 32 83 30 47 -2z m296 4 c28 -15 67 -50 67 -61 0 -4 -7 -8 -15 -8 -32 0 -12 -21 47 -51 34 -17 79 -42 100 -55 48 -30 52 -30 32 1 -9 14 -15 27 -13 29 7 8 143 -79 176 -112 37 -37 42 -26 19 41 -8 20 -10 37 -5 37 4 0 20 -17 35 -37 21 -31 25 -34 20 -13 l-7 25 18 -25 c10 -14 39 -48 65 -76 42 -45 47 -55 42 -83 -8 -40 -18 -39 -49 6 -14 21 -25 32 -25 26 0 -35 32 -79 136 -183 63 -64 114 -119 114 -123 0 -4 -47 -7 -105 -7 -95 0 -123 7 -95 25 6 3 10 11 10 17 0 6 -11 1 -25 -12 -14 -13 -25 -29 -25 -35 0 -19 42 -52 82 -64 74 -24 65 -100 -22 -178 -35 -32 -123 -57 -168 -48 l-37 7 30 14 c17 7 58 25 92 40 80 34 101 57 30 33 -55 -19 -187 -26 -187 -10 0 11 5 13 105 37 68 16 155 49 155 58 0 2 -25 -2 -56 -10 -63 -17 -224 -33 -224 -23 0 16 34 31 106 44 43 9 80 18 83 20 2 3 -31 5 -75 5 -43 0 -89 3 -101 6 l-22 6 24 36 c29 43 33 62 7 39 -29 -26 -88 -47 -134 -47 -160 0 -226 -200 -132 -396 20 -40 63 -95 135 -169 126 -133 154 -182 154 -275 -1 -47 -7 -76 -22 -105 -42 -78 -134 -146 -218 -160 l-40 -6 32 21 c62 41 126 176 107 225 -13 32 8 13 22 -20 14 -35 11 -78 -9 -102 -15 -20 8 -16 25 5 50 56 62 146 29 217 -10 22 -38 62 -63 90 l-45 49 5 -33 c4 -30 3 -32 -14 -23 -46 25 -161 132 -195 182 -59 86 -82 171 -77 282 4 105 31 178 87 237 40 42 50 35 17 -13 -32 -47 -49 -127 -39 -185 l7 -46 8 54 c17 109 91 187 199 210 57 13 99 32 119 56 12 15 11 15 -16 8 -16 -4 -67 -8 -114 -8 -108 0 -168 28 -217 100 -38 54 -44 119 -18 182 21 50 19 51 -20 13 -30 -29 -37 -32 -46 -20 -7 12 -4 62 4 66 37 17 77 50 77 63 0 18 -23 43 -50 55 -14 6 2 3 74 -11 26 -5 28 -8 23 -44 -4 -29 0 -45 14 -63 18 -23 18 -24 -2 -42 -17 -16 -22 -16 -30 -4 -14 22 -29 -5 -29 -53 0 -100 105 -197 214 -197 49 0 86 9 86 21 0 5 -7 6 -14 3 -19 -7 -115 21 -141 41 -19 15 -17 16 25 11 l45 -6 -60 29 c-58 28 -59 29 -32 36 39 10 85 -1 132 -32 27 -18 58 -29 95 -33 l55 -5 -30 -18 -30 -17 29 6 c28 7 28 6 21 -27 l-7 -34 23 22 c40 37 73 44 120 28 23 -9 44 -14 46 -12 2 2 -15 17 -38 32 -64 45 -71 59 -48 108 24 54 25 97 1 47 -20 -42 -54 -50 -104 -24 -25 14 -51 17 -108 14 -137 -6 -195 -5 -214 3 -16 6 -14 10 18 32 20 14 52 36 71 49 l34 24 -50 4 c-28 3 -58 12 -67 21 -15 15 -10 16 54 12 61 -4 65 -3 32 6 -35 10 -95 55 -86 65 3 2 18 -2 34 -10 16 -8 45 -17 64 -20 31 -6 33 -5 15 6 -11 7 -41 34 -67 59 -26 25 -49 44 -51 42 -2 -1 -18 15 -36 37 -41 52 -30 76 22 49z m-88 -38 c31 -17 82 -97 71 -109 -4 -3 -10 -2 -14 4 -48 71 -205 53 -235 -26 -6 -17 -15 -30 -18 -30 -14 0 -20 61 -9 94 13 42 37 64 87 81 42 15 73 11 118 -14z m640 -53 c8 -33 -8 -64 -36 -73 -29 -10 -33 -1 -13 29 13 21 15 39 11 79 l-7 52 20 -30 c11 -16 22 -42 25 -57z m-995 55 c0 -5 -8 -29 -18 -54 -17 -45 -17 -45 -36 -27 -11 10 -32 18 -48 18 -40 0 -27 17 36 46 55 25 66 28 66 17z m-60 -86 c0 -2 -27 -25 -60 -50 -60 -47 -86 -87 -31 -47 31 22 111 53 118 46 3 -2 -21 -21 -51 -41 -64 -42 -132 -114 -171 -181 -32 -55 -29 -73 8 -44 38 30 119 60 163 60 75 0 144 -60 144 -125 0 -33 -26 -95 -39 -95 -6 0 -8 7 -5 15 11 27 -16 73 -53 90 -50 24 -100 14 -224 -45 -118 -57 -169 -64 -213 -29 -28 22 -56 68 -56 93 0 11 7 8 26 -10 19 -20 31 -24 52 -19 40 10 55 27 108 128 59 110 139 196 215 232 51 24 69 29 69 22z m966 -24 c-3 -17 -26 -26 -26 -10 0 4 0 12 0 17 0 6 6 10 14 10 8 0 13 -8 12 -17z m-549 -55 l28 -11 -39 -7 c-80 -15 -110 -93 -62 -162 26 -39 39 -98 22 -98 -25 0 -87 53 -106 90 -26 51 -25 99 3 141 37 56 93 73 154 47z m-359 -46 c18 -53 110 -137 129 -118 7 7 26 -14 40 -45 10 -24 9 -28 -12 -39 -13 -7 -26 -23 -29 -36 -9 -35 -21 -29 -35 17 -24 81 -127 140 -217 126 -19 -3 -34 -3 -34 1 1 20 113 121 137 122 6 0 15 -12 21 -28z m676 -189 c4 -5 28 -16 54 -25 l47 -16 -41 -1 c-31 -1 -46 5 -64 24 -20 21 -16 38 4 18z m146 -28 c24 -26 23 -40 -2 -30 -17 7 -43 55 -30 55 5 0 19 -11 32 -25z m-637 -59 c0 -26 -7 -56 -18 -73 -15 -23 -10 -21 25 12 38 36 42 38 35 15 -10 -37 -66 -114 -146 -205 -162 -182 -184 -316 -94 -582 62 -182 69 -220 55 -288 -6 -30 -15 -55 -19 -55 -15 0 -42 61 -52 117 -6 32 -30 119 -54 193 -70 217 -78 332 -35 472 26 83 62 139 156 241 85 92 124 154 124 197 0 18 3 21 12 12 6 -6 11 -31 11 -56z m123 20 c25 -1 39 -11 65 -46 23 -30 53 -54 92 -73 31 -15 57 -32 57 -36 0 -16 -28 -20 -40 -5 -16 18 -40 18 -68 -2 -30 -21 -35 -15 -21 25 10 27 9 35 -4 48 -50 51 -186 -114 -224 -271 -18 -71 -18 -161 -3 -248 11 -59 44 -151 63 -173 27 -34 77 -120 74 -129 -2 -6 -43 28 -91 76 -64 63 -90 96 -96 122 -9 39 -6 196 5 236 4 19 1 31 -14 44 -24 22 -53 14 -71 -19 -7 -13 -16 -22 -21 -20 -4 3 -10 -1 -13 -7 -3 -7 -3 -2 0 12 10 40 64 118 147 213 42 48 83 100 92 117 19 36 19 79 0 104 -8 11 -15 28 -15 38 0 15 4 16 28 7 15 -6 41 -12 58 -13z m-348 -42 c17 -18 17 -19 -33 -65 -25 -23 -58 -65 -74 -93 -56 -99 -64 -137 -70 -336 -6 -177 -7 -187 -34 -243 -33 -66 -64 -87 -132 -87 -53 0 -57 9 -12 30 51 24 79 91 84 203 3 77 2 89 -9 73 -7 -10 -22 -29 -32 -43 l-19 -25 -13 23 c-31 57 -25 179 13 252 20 39 23 31 11 -28 -10 -54 1 -105 25 -105 8 0 16 27 24 84 18 129 63 227 140 305 35 35 67 61 70 57 4 -3 -5 -19 -18 -34 -27 -29 -59 -77 -59 -88 0 -4 16 9 35 29 20 21 53 46 73 56 l37 19 -27 13 c-16 7 -28 16 -28 20 0 11 31 -1 48 -17z m-179 -45 c-38 -48 -55 -57 -75 -37 -13 13 -12 17 9 31 14 9 37 19 51 23 14 3 29 10 32 15 3 5 8 9 10 9 3 0 -9 -18 -27 -41z m226 -19 c18 -20 18 -21 -11 -52 -16 -18 -35 -39 -43 -47 -25 -27 -77 -114 -100 -165 -12 -27 -23 -47 -25 -45 -10 10 25 134 49 177 46 79 96 152 104 152 4 0 16 -9 26 -20z m-364 -66 c-46 -53 -55 -81 -13 -42 34 32 81 62 87 56 3 -3 -13 -24 -35 -49 -93 -99 -145 -207 -157 -323 l-6 -59 -15 29 c-21 39 -27 142 -12 203 16 67 76 159 130 199 61 45 69 40 21 -14z m1555 -128 c-7 -46 -39 -106 -57 -106 -8 0 -10 12 -6 36 6 36 6 36 -13 19 -24 -22 -24 -20 -5 36 8 24 30 57 48 72 32 28 32 28 35 6 2 -12 1 -41 -2 -63z m-586 37 c0 -3 -6 -14 -14 -22 -40 -47 -35 -123 14 -181 44 -53 80 -34 80 42 0 49 22 108 40 108 13 0 30 -34 30 -59 0 -11 8 -25 19 -30 10 -6 21 -24 24 -40 4 -16 14 -34 24 -39 17 -9 74 -20 118 -22 13 -1 5 -8 -24 -21 -37 -16 -50 -18 -72 -8 -15 6 -32 8 -38 5 -6 -4 -20 5 -33 19 -27 32 -41 32 -58 0 -11 -20 -12 -37 -3 -78 6 -29 10 -53 8 -55 -1 -1 -33 25 -70 58 -37 33 -70 58 -72 56 -8 -8 28 -66 63 -101 20 -20 73 -61 120 -91 94 -62 115 -85 140 -149 21 -57 12 -125 -22 -163 l-24 -27 6 43 c13 87 -8 126 -132 247 -104 101 -164 183 -164 225 0 6 -5 8 -10 5 -6 -4 -8 -12 -4 -18 3 -7 -4 -1 -15 12 -12 13 -22 39 -23 60 -3 81 2 156 12 159 5 2 10 8 10 13 0 19 35 58 53 59 9 0 17 -3 17 -7z m110 3 c0 -3 -13 -17 -29 -33 -35 -35 -48 -97 -31 -148 17 -51 6 -54 -25 -6 -47 70 -31 146 38 176 34 15 47 18 47 11z m399 -182 c12 -15 21 -33 21 -41 0 -12 -4 -12 -22 1 -26 18 -80 21 -109 6 -33 -18 -20 4 19 32 47 34 66 34 91 2z m-306 -171 c43 -45 48 -41 21 14 -13 25 -22 48 -20 50 2 3 23 -15 46 -39 24 -24 37 -35 30 -25 -17 23 -4 21 33 -5 l32 -23 -19 30 c-10 17 -25 36 -34 42 -9 7 -13 15 -10 19 4 3 27 -13 52 -36 25 -24 46 -40 46 -37 0 3 -9 27 -20 54 l-20 48 30 -33 30 -32 0 35 c0 29 4 36 27 41 21 6 31 2 50 -20 48 -56 21 -160 -62 -241 -53 -51 -70 -57 -61 -20 8 33 -8 93 -35 125 l-20 25 6 -32 c7 -37 0 -40 -56 -22 -67 23 -119 96 -119 169 l0 35 21 -45 c11 -25 34 -60 52 -77z m113 -158 c9 -37 3 -37 -30 -4 l-29 29 26 0 c20 0 28 -6 33 -25z m-441 -65 c14 -16 16 -23 7 -32 -9 -9 -15 -7 -27 8 -30 39 -13 60 20 24z m-650 -86 l0 -66 29 34 28 33 -6 -35 c-14 -80 -84 -122 -166 -100 l-45 12 38 13 c20 7 43 18 51 24 25 21 46 78 46 127 0 38 3 46 13 36 7 -8 12 -39 12 -78z m735 -51 c1 -27 1 -27 15 -9 20 27 28 15 32 -47 4 -57 -17 -106 -56 -126 -19 -11 -19 -9 -9 19 15 46 5 138 -22 195 -35 73 -35 73 4 33 23 -24 36 -48 36 -65z m131 -37 c9 -34 2 -68 -8 -38 -3 6 -11 12 -19 12 -8 0 -14 8 -14 18 0 9 -9 30 -20 47 -14 21 -16 32 -8 42 15 18 55 -29 69 -81z"/> <path d="M1850 1981 c-32 -10 -93 -41 -88 -46 1 -2 30 4 62 12 75 19 136 11 170 -24 30 -29 36 -11 8 23 -33 42 -88 54 -152 35z"/> <path d="M1573 1280 c4 -87 40 -164 114 -241 84 -88 105 -93 33 -7 -68 80 -123 186 -139 263 l-10 50 2 -65z"/> <path d="M1404 1245 c2 -80 7 -109 25 -148 13 -26 25 -46 27 -44 2 1 -6 32 -17 67 -11 36 -24 101 -29 145 l-9 80 3 -100z"/> <path d="M1480 1002 c0 -23 37 -86 75 -127 l36 -40 -24 40 c-56 93 -87 138 -87 127z"/> </g> </svg> 